<svg width="48" height="15" viewBox="0 0 48 15" fill="none" xmlns="http://www.w3.org/2000/svg">
    <path d="M1.72648 6.4668C1.17419 6.4668 0.72648 6.91452 0.72648 7.4668C0.72648 8.01909 1.1742 8.4668 1.72648 8.4668L1.72648 6.4668ZM47.4067 8.17389C47.7972 7.78337 47.7972 7.1502 47.4067 6.75968L41.0427 0.39572C40.6522 0.00519639 40.0191 0.00519634 39.6285 0.395721C39.238 0.786245 39.238 1.41941 39.6285 1.80993L45.2854 7.46679L39.6285 13.1236C39.238 13.5142 39.238 14.1473 39.6285 14.5379C40.0191 14.9284 40.6522 14.9284 41.0427 14.5379L47.4067 8.17389ZM1.72648 8.4668L46.6996 8.46679L46.6996 6.46679L1.72648 6.4668L1.72648 8.4668Z" fill="black" fill-opacity="0.32"/>
</svg>
