<svg width="16" height="48" viewBox="0 0 16 48" fill="none" xmlns="http://www.w3.org/2000/svg">
    <path d="M9.13281 1.86515C9.13281 1.31287 8.68509 0.865152 8.13281 0.865152C7.58052 0.865152 7.13281 1.31287 7.13281 1.86515L9.13281 1.86515ZM7.42572 47.5454C7.81624 47.9359 8.44941 47.9359 8.83993 47.5454L15.2039 41.1814C15.5944 40.7909 15.5944 40.1577 15.2039 39.7672C14.8134 39.3767 14.1802 39.3767 13.7897 39.7672L8.13282 45.4241L2.47597 39.7672C2.08544 39.3767 1.45228 39.3767 1.06175 39.7672C0.671229 40.1577 0.67123 40.7909 1.06175 41.1814L7.42572 47.5454ZM7.13281 1.86515L7.13281 3.73903L9.13281 3.73903L9.13281 1.86515L7.13281 1.86515ZM7.13281 7.48679L7.13281 11.2346L9.13281 11.2346L9.13281 7.48679L7.13281 7.48679ZM7.13281 14.9823L7.13281 18.7301H9.13281L9.13281 14.9823L7.13281 14.9823ZM7.13282 22.4778L7.13282 26.2256L9.13282 26.2256L9.13282 22.4778H7.13282ZM7.13282 29.9734L7.13282 33.7211L9.13282 33.7211L9.13282 29.9734H7.13282ZM7.13282 37.4689L7.13282 41.2166H9.13282L9.13282 37.4689H7.13282ZM7.13282 44.9644L7.13282 46.8383H9.13282L9.13282 44.9644H7.13282Z" fill="black" fill-opacity="0.32"/>
</svg>
